<mxfile host="app.diagrams.net" modified="2023-04-18T14:40:17.817Z" agent="Mozilla/5.0 (Macintosh; Intel Mac OS X 10_15_7) AppleWebKit/537.36 (KHTML, like Gecko) Chrome/111.0.0.0 Safari/537.36" etag="cO4CtvuvBggMBPyUaXsI" version="21.1.8" type="github">
  <diagram id="C5RBs43oDa-KdzZeNtuy" name="Page-1">
    <mxGraphModel dx="1242" dy="828" grid="1" gridSize="10" guides="1" tooltips="1" connect="1" arrows="1" fold="1" page="1" pageScale="1" pageWidth="827" pageHeight="1169" math="0" shadow="0">
      <root>
        <mxCell id="WIyWlLk6GJQsqaUBKTNV-0" />
        <mxCell id="WIyWlLk6GJQsqaUBKTNV-1" parent="WIyWlLk6GJQsqaUBKTNV-0" />
        <mxCell id="E6RUVvbPqemEtvHyYMZb-0" value="Physical Location" parent="WIyWlLk6GJQsqaUBKTNV-0" />
        <object label="Network Zones " id="E6RUVvbPqemEtvHyYMZb-1">
          <mxCell parent="WIyWlLk6GJQsqaUBKTNV-0" />
        </object>
        <mxCell id="E6RUVvbPqemEtvHyYMZb-2" value="Network communication" parent="WIyWlLk6GJQsqaUBKTNV-0" />
        <mxCell id="E6RUVvbPqemEtvHyYMZb-3" value="Servers" parent="WIyWlLk6GJQsqaUBKTNV-0" />
        <mxCell id="E6RUVvbPqemEtvHyYMZb-4" value="Application components " parent="WIyWlLk6GJQsqaUBKTNV-0" />
      </root>
    </mxGraphModel>
  </diagram>
</mxfile>
